<svg width="113px" height="40px" viewBox="0 0 113 40" version="1.1" xmlns="http://www.w3.org/2000/svg" xmlns:xlink="http://www.w3.org/1999/xlink">
    <defs>
        <linearGradient x1="50.1044252%" y1="100%" x2="50.1044252%" y2="0%" id="linearGradient-1">
            <stop stop-color="#8D00FF" offset="0%"></stop>
            <stop stop-color="#F37DCB" offset="100%"></stop>
        </linearGradient>
        <polygon id="path-2" points="0.112591566 0.138247934 15.166438 0.138247934 15.166438 18.1818182 0.112591566 18.1818182"></polygon>
        <polygon id="path-4" points="0.130392079 0.24892562 15.1485013 0.24892562 15.1485013 18.2930909 0.130392079 18.2930909"></polygon>
    </defs>
    <g id="Page-1" stroke="none" stroke-width="1" fill="none" fill-rule="evenodd">
        <g id="menu-profile" transform="translate(-72.000000, -31.000000)">
            <g id="logo" transform="translate(72.000000, 31.000000)">
                <g>
                    <path d="M28.6622458,21.9573884 L21.5731976,39.1864793 C21.4632608,39.4542479 21.6661163,39.7454876 21.9629114,39.7454876 L36.1410078,39.7454876 C36.437803,39.7454876 36.6406584,39.4542479 36.5307217,39.1864793 L29.4416735,21.9573884 C29.3007639,21.6155702 28.8028151,21.6155702 28.6622458,21.9573884" id="Fill-1" fill="url(#linearGradient-1)"></path>
                    <path d="M36.111975,0.330975207 L21.9917401,0.330975207 C21.7340864,0.330975207 21.5251045,0.533619835 21.5251045,0.784198347 L21.5251045,1.24006612 L21.5251045,3.83543802 L21.5251045,7.82717355 L21.5251045,10.8780826 L21.5251045,14.8698182 L21.5251045,17.6003967 L21.5251045,17.9207273 C21.5251045,18.1713058 21.7340864,18.374281 21.9917401,18.374281 L36.111975,18.374281 C36.369969,18.374281 36.5789509,18.1713058 36.5789509,17.9207273 L36.5789509,14.8698182 C36.5789509,14.6195702 36.369969,14.4162645 36.111975,14.4162645 L25.8456527,14.4162645 L25.8456527,11.3316364 L36.111975,11.3316364 C36.369969,11.3316364 36.5789509,11.1286612 36.5789509,10.8780826 L36.5789509,7.82717355 C36.5789509,7.57659504 36.369969,7.37361983 36.111975,7.37361983 L25.8456527,7.37361983 L25.8456527,4.28899174 L36.111975,4.28899174 C36.369969,4.28899174 36.5789509,4.08568595 36.5789509,3.83543802 L36.5789509,0.784198347 C36.5789509,0.533619835 36.369969,0.330975207 36.111975,0.330975207" id="Fill-3" fill="#FFFFFF"></path>
                    <g id="Group-7" transform="translate(78.963855, 21.569256)">
                        <mask id="mask-3" fill="white">
                            <use xlink:href="#path-2"></use>
                        </mask>
                        <g id="Clip-6"></g>
                        <path d="M14.699462,0.138247934 L0.579227108,0.138247934 C0.321573494,0.138247934 0.112591566,0.34122314 0.112591566,0.591801653 L0.112591566,0.953785124 L0.112591566,3.64304132 L0.112591566,7.63444628 L0.112591566,10.6853554 L0.112591566,14.6770909 L0.112591566,17.3141157 L0.112591566,17.7283306 C0.112591566,17.9789091 0.321573494,18.1818843 0.579227108,18.1818843 L14.699462,18.1818843 C14.957456,18.1818843 15.166438,17.9789091 15.166438,17.7283306 L15.166438,14.6770909 C15.166438,14.426843 14.957456,14.2235372 14.699462,14.2235372 L4.43313976,14.2235372 L4.43313976,11.1389091 L14.699462,11.1389091 C14.957456,11.1389091 15.166438,10.9359339 15.166438,10.6853554 L15.166438,7.63444628 C15.166438,7.38386777 14.957456,7.18122314 14.699462,7.18122314 L4.43313976,7.18122314 L4.43313976,4.09626446 L14.699462,4.09626446 C14.957456,4.09626446 15.166438,3.89328926 15.166438,3.64304132 L15.166438,0.591801653 C15.166438,0.34122314 14.957456,0.138247934 14.699462,0.138247934" id="Fill-5" fill="#FFFFFF" mask="url(#mask-3)"></path>
                    </g>
                    <path d="M0.81792259,18.374281 L3.60854608,18.374281 C4.116025,18.374281 4.42643464,18.210314 4.42643464,17.580562 L4.42643464,8.29857851 L7.27321777,13.090314 C7.41412741,13.3088264 7.63978705,13.6648595 8.06285633,13.6648595 L9.47195271,13.6648595 C9.89502199,13.6648595 10.1489316,13.3088264 10.2898413,13.090314 L13.1090551,8.29857851 L13.1090551,17.580562 C13.1090551,18.210314 13.4184437,18.374281 13.926263,18.374281 L16.6328172,18.374281 C17.1402961,18.374281 17.4503654,18.210314 17.4503654,17.580562 L17.4503654,1.12469421 C17.4503654,0.63246281 17.2812057,0.330975207 16.6328172,0.330975207 L13.926263,0.330975207 C12.9957148,0.330975207 12.8548051,0.932628099 12.6577358,1.26155372 L8.76740452,7.99709091 L4.90566355,1.26155372 C4.68000392,0.932628099 4.56734428,0.330975207 3.60854608,0.330975207 L0.81792259,0.330975207 C0.169874398,0.330975207 0.00037439759,0.63246281 0.00037439759,1.12469421 L0.00037439759,17.580562 C0.00037439759,18.210314 0.310784036,18.374281 0.81792259,18.374281" id="Fill-8" fill="#FFFFFF"></path>
                    <path d="M41.4670178,18.3603967 L44.2573009,18.3603967 C44.7647798,18.3603967 45.0755298,18.1964298 45.0755298,17.5663471 L45.0755298,8.03841322 L51.0512557,17.4294876 C51.417825,17.9769256 51.6148943,18.3603967 52.3197828,18.3603967 L54.8854274,18.3603967 C55.533816,18.3603967 55.7029756,18.0595702 55.7029756,17.5663471 L55.7029756,1.13791736 C55.7029756,0.508165289 55.3929063,0.344528926 54.8854274,0.344528926 L52.1788732,0.344528926 C51.6717346,0.344528926 51.3616654,0.508165289 51.3616654,1.13791736 L51.3616654,10.6397355 L45.3849184,1.27510744 C45.0186895,0.727338843 44.8209395,0.344528926 44.1163913,0.344528926 L41.4670178,0.344528926 C40.8186292,0.344528926 40.6487889,0.645024793 40.6487889,1.13791736 L40.6487889,17.5663471 C40.6487889,18.1964298 40.9595389,18.3603967 41.4670178,18.3603967" id="Fill-10" fill="#FFFFFF"></path>
                    <path d="M60.5748072,4.3027438 L65.1295241,4.3027438 L65.1295241,17.5662149 C65.1295241,18.1962975 65.439253,18.3602645 65.9470723,18.3602645 L68.7376958,18.3602645 C69.2448343,18.3602645 69.5555843,18.1962975 69.5555843,17.5662149 L69.5555843,4.3027438 L74.0820512,4.3027438 C74.5092048,4.3027438 74.8553524,3.96621488 74.8553524,3.55166942 L74.8553524,1.09613223 C74.8553524,0.68092562 74.5092048,0.344396694 74.0820512,0.344396694 L60.5748072,0.344396694 C60.1476536,0.344396694 59.801506,0.68092562 59.801506,1.09613223 L59.801506,3.55166942 C59.801506,3.96621488 60.1476536,4.3027438 60.5748072,4.3027438" id="Fill-12" fill="#FFFFFF"></path>
                    <path d="M111.923028,21.6952397 L98.4157843,21.6952397 C97.9886307,21.6952397 97.6424831,22.0317686 97.6424831,22.446314 L97.6424831,24.9021818 C97.6424831,25.3170579 97.9886307,25.6535868 98.4157843,25.6535868 L102.970501,25.6535868 L102.970501,38.9170579 C102.970501,39.5468099 103.28023,39.7111074 103.788049,39.7111074 L106.578673,39.7111074 C107.085811,39.7111074 107.396561,39.5468099 107.396561,38.9170579 L107.396561,25.6535868 L111.923028,25.6535868 C112.350182,25.6535868 112.69633,25.3170579 112.69633,24.9021818 L112.69633,22.446314 C112.69633,22.0317686 112.350182,21.6952397 111.923028,21.6952397" id="Fill-14" fill="#FFFFFF"></path>
                    <path d="M111.923028,14.3340496 L102.067863,14.3340496 L102.067863,1.13801653 C102.067863,0.508264463 101.757793,0.344628099 101.250995,0.344628099 L98.4593506,0.344628099 C97.9525524,0.344628099 97.6424831,0.508264463 97.6424831,1.13801653 L97.6424831,15.0847934 L97.6424831,17.5406612 L97.6424831,17.5661157 L97.6448657,17.5644628 C97.6581398,17.9680992 97.9971398,18.2920661 98.4157843,18.2920661 L111.923028,18.2920661 C112.350182,18.2920661 112.69633,17.9555372 112.69633,17.5406612 L112.69633,15.0847934 C112.69633,14.6702479 112.350182,14.3340496 111.923028,14.3340496" id="Fill-16" fill="#FFFFFF"></path>
                    <path d="M16.6324428,21.701686 L13.9265693,21.701686 C12.9960211,21.701686 12.8551114,22.3036694 12.6573614,22.632595 L8.76703012,29.3681322 L4.90528916,22.632595 C4.67962952,22.3036694 4.56731024,21.701686 3.60817169,21.701686 L0.818228916,21.701686 C0.1695,21.701686 0,22.0031736 0,22.4957355 L0,38.9512727 C0,39.5810248 0.310409639,39.7453223 0.818228916,39.7453223 L3.60817169,39.7453223 C4.11599096,39.7453223 4.4264006,39.5810248 4.4264006,38.9512727 L4.4264006,29.6692893 L7.2735241,34.4610248 C7.41443373,34.6798678 7.63975301,35.0359008 8.06248193,35.0359008 L9.47225904,35.0359008 C9.89532831,35.0359008 10.1488976,34.6798678 10.2898072,34.4610248 L13.1086807,29.6692893 L13.1086807,38.9512727 C13.1086807,39.5810248 13.41875,39.7453223 13.9265693,39.7453223 L16.6324428,39.7453223 C17.1399217,39.7453223 17.4506717,39.5810248 17.4506717,38.9512727 L17.4506717,22.4957355 C17.4506717,22.0031736 17.2808313,21.701686 16.6324428,21.701686" id="Fill-18" fill="#FFFFFF"></path>
                    <path d="M51.8693145,33.2222149 C53.6167301,32.6466777 55.7872151,30.6483306 55.7872151,27.7732893 C55.7872151,26.0212231 55.1956669,24.460562 54.152459,23.4751074 C52.9683416,22.3246942 51.6150645,21.7220496 48.542962,21.7220496 L41.4385976,21.7220496 C40.7898687,21.7220496 40.648959,22.0235372 40.648959,22.5164298 L40.648959,38.9170909 C40.648959,39.546843 40.9307783,39.7111405 41.4385976,39.7111405 L44.2299018,39.7111405 C44.7367,39.7111405 45.0467693,39.546843 45.0467693,38.9170909 L45.0467693,25.5557686 L48.796191,25.5557686 C50.2621277,25.5557686 51.3897452,26.4585785 51.3897452,27.8827107 C51.3897452,29.1696529 50.0933084,30.100562 48.711441,30.100562 L48.147462,30.100562 C47.4994139,30.100562 47.3305946,30.4020496 47.3305946,30.8949421 L47.3305946,33.0853554 C47.3305946,33.8519669 47.3867542,34.1527934 47.6403235,34.4813884 L50.685197,38.8899835 C51.0800163,39.4645289 51.4179952,39.7111405 52.0946337,39.7111405 L55.4209861,39.7111405 C55.9567151,39.7111405 56.0976247,39.2185785 55.8437151,38.8347769 L51.8693145,33.2222149 Z" id="Fill-20" fill="#FFFFFF"></path>
                    <path d="M74.8291105,21.6952397 L71.0235292,21.6952397 C70.3751407,21.6952397 70.1780714,21.7497851 69.6144328,22.3517686 L63.7782551,28.5944132 L63.7782551,22.4886281 C63.7782551,21.858876 63.4688666,21.6952397 62.9892973,21.6952397 L60.1986738,21.6952397 C59.6629449,21.6952397 59.3811256,21.858876 59.3811256,22.4886281 L59.3811256,38.9170579 C59.3811256,39.5468099 59.6629449,39.7111074 60.1986738,39.7111074 L62.9892973,39.7111074 C63.4688666,39.7111074 63.7782551,39.5468099 63.7782551,38.9170579 L63.7782551,34.0436694 L65.5266919,32.2638347 C67.0487883,34.7279669 69.5582732,38.8347438 69.5582732,38.8347438 C69.9241617,39.4099504 70.2903907,39.7111074 70.9673696,39.7111074 L74.4063816,39.7111074 C74.9421105,39.7111074 75.0551105,39.1907769 74.8291105,38.8347438 L68.7686346,29.1418512 L75.1112702,22.4615207 C75.3648395,22.2149091 75.3648395,21.6952397 74.8291105,21.6952397" id="Fill-22" fill="#FFFFFF"></path>
                    <g id="Group-26" transform="translate(78.963855, 0.081653)">
                        <mask id="mask-5" fill="white">
                            <use xlink:href="#path-4"></use>
                        </mask>
                        <g id="Clip-25"></g>
                        <path d="M0.160684639,17.7344132 C0.0507478916,18.0021818 0.253603313,18.2930909 0.550398494,18.2930909 L14.7284949,18.2930909 C15.0252901,18.2930909 15.2281455,18.0021818 15.1182087,17.7344132 L8.02916054,0.504991736 C7.8882509,0.163504132 7.39030211,0.163504132 7.24973283,0.504991736 L0.160684639,17.7344132 Z" id="Fill-24" fill="url(#linearGradient-1)" mask="url(#mask-5)"></path>
                    </g>
                </g>
            </g>
        </g>
    </g>
</svg>